<svg xmlns="http://www.w3.org/2000/svg" width="200" height="98.163" viewBox="0 0 200 98.163">
  <g id="Grupo_4" data-name="Grupo 4" transform="translate(-583 -29.128)">
    <g id="Grupo_3" data-name="Grupo 3">
      <path id="Trazado_4" data-name="Trazado 4" d="M637.718,112.081a3.977,3.977,0,0,1,1.939-.452,4.354,4.354,0,0,1,2.353.659,4.559,4.559,0,0,1,1.666,1.882,6.939,6.939,0,0,1,0,5.694,4.61,4.61,0,0,1-1.666,1.9,4.3,4.3,0,0,1-2.353.669,4,4,0,0,1-1.93-.452,3.54,3.54,0,0,1-1.308-1.167v6.475H633.2V111.779h3.219v1.487A3.482,3.482,0,0,1,637.718,112.081Zm2.626,3.04a2.209,2.209,0,0,0-1.648-.687,2.171,2.171,0,0,0-1.628.7,3.04,3.04,0,0,0,0,3.8,2.254,2.254,0,0,0,3.267-.01,2.644,2.644,0,0,0,.677-1.91A2.6,2.6,0,0,0,640.344,115.121Z" fill="#fff"/>
      <path id="Trazado_5" data-name="Trazado 5" d="M649.2,108.353v13.931h-3.219V108.353Z" fill="#fff"/>
      <path id="Trazado_6" data-name="Trazado 6" d="M651.507,114.17a4.558,4.558,0,0,1,1.666-1.882,4.349,4.349,0,0,1,2.353-.659,4.029,4.029,0,0,1,1.948.452,3.324,3.324,0,0,1,1.29,1.185v-1.487h3.219v10.5h-3.219V120.8a3.485,3.485,0,0,1-1.308,1.187,4.05,4.05,0,0,1-1.949.452,4.266,4.266,0,0,1-2.334-.669,4.61,4.61,0,0,1-1.666-1.9,6.928,6.928,0,0,1,0-5.694Zm6.588.96a2.262,2.262,0,0,0-3.256-.009,2.6,2.6,0,0,0-.669,1.892,2.662,2.662,0,0,0,.669,1.91,2.241,2.241,0,0,0,3.256.01,3.037,3.037,0,0,0,0-3.8Z" fill="#fff"/>
      <path id="Trazado_7" data-name="Trazado 7" d="M675.047,111.779l-6.588,15.494h-3.464l2.41-5.347-4.274-10.147h3.6l2.428,6.57,2.41-6.57Z" fill="#fff"/>
      <path id="Trazado_8" data-name="Trazado 8" d="M686.059,119.554v2.73h-1.637a4.006,4.006,0,0,1-2.73-.857,3.542,3.542,0,0,1-.978-2.8v-4.178h-1.28v-2.674h1.28v-2.56h3.219v2.56h2.108v2.674h-2.108v4.217a.884.884,0,0,0,.225.677,1.105,1.105,0,0,0,.754.207Z" fill="#fff"/>
      <path id="Trazado_9" data-name="Trazado 9" d="M689.853,121.775a4.823,4.823,0,0,1-1.939-1.882,6.1,6.1,0,0,1,.01-5.714,4.847,4.847,0,0,1,1.958-1.891,6.218,6.218,0,0,1,5.572,0,4.853,4.853,0,0,1,1.958,1.891,5.592,5.592,0,0,1,.715,2.852,5.52,5.52,0,0,1-.725,2.852,4.89,4.89,0,0,1-1.977,1.892,5.9,5.9,0,0,1-2.795.66A5.791,5.791,0,0,1,689.853,121.775Zm4.349-2.8a2.7,2.7,0,0,0,.65-1.94,2.746,2.746,0,0,0-.631-1.939,2.139,2.139,0,0,0-3.116-.009,2.764,2.764,0,0,0-.621,1.948,2.8,2.8,0,0,0,.612,1.94,1.98,1.98,0,0,0,1.534.677A2.1,2.1,0,0,0,694.2,118.971Z" fill="#fff"/>
      <path id="Trazado_10" data-name="Trazado 10" d="M713.676,117.8h-7.285a2.193,2.193,0,0,0,.63,1.5,1.929,1.929,0,0,0,1.365.518,1.692,1.692,0,0,0,1.676-1.017h3.426a4.715,4.715,0,0,1-.951,1.864,4.764,4.764,0,0,1-1.722,1.3,5.527,5.527,0,0,1-2.315.471,5.626,5.626,0,0,1-2.749-.66,4.686,4.686,0,0,1-1.883-1.882,5.812,5.812,0,0,1-.677-2.862,5.871,5.871,0,0,1,.668-2.861,4.619,4.619,0,0,1,1.873-1.882,6.1,6.1,0,0,1,5.478-.02,4.607,4.607,0,0,1,1.855,1.827,5.546,5.546,0,0,1,.668,2.767A8.145,8.145,0,0,1,713.676,117.8Zm-3.237-1.788a1.659,1.659,0,0,0-.565-1.318,2.081,2.081,0,0,0-1.412-.489,2.037,2.037,0,0,0-1.365.471,2.089,2.089,0,0,0-.687,1.336Z" fill="#fff"/>
      <path id="Trazado_11" data-name="Trazado 11" d="M715.4,114.17a4.545,4.545,0,0,1,1.666-1.882,4.352,4.352,0,0,1,2.353-.659,4.029,4.029,0,0,1,1.948.452,3.331,3.331,0,0,1,1.29,1.185v-1.487h3.219v10.5h-3.219V120.8a3.481,3.481,0,0,1-1.309,1.187,4.043,4.043,0,0,1-1.948.452,4.268,4.268,0,0,1-2.334-.669,4.6,4.6,0,0,1-1.666-1.9,6.928,6.928,0,0,1,0-5.694Zm6.589.96a2.263,2.263,0,0,0-3.257-.009,2.6,2.6,0,0,0-.669,1.892,2.661,2.661,0,0,0,.669,1.91,2.242,2.242,0,0,0,3.257.01,3.04,3.04,0,0,0,0-3.8Z" fill="#fff"/>
      <path id="Trazado_12" data-name="Trazado 12" d="M732.84,112.165a3.647,3.647,0,0,1,1.883-.5v3.408h-.886a2.71,2.71,0,0,0-1.806.517,2.3,2.3,0,0,0-.6,1.817v4.876h-3.219v-10.5h3.219v1.751A4.257,4.257,0,0,1,732.84,112.165Z" fill="#fff"/>
      <path id="Trazado_13" data-name="Trazado 13" d="M745.613,112.862a4.664,4.664,0,0,1,1.1,3.285v6.137h-3.2v-5.7a2.305,2.305,0,0,0-.545-1.638,2.138,2.138,0,0,0-2.937,0,2.305,2.305,0,0,0-.546,1.638v5.7h-3.219v-10.5h3.219v1.393a3.393,3.393,0,0,1,1.318-1.1,4.184,4.184,0,0,1,1.863-.4A3.815,3.815,0,0,1,745.613,112.862Z" fill="#fff"/>
    </g>
    <path id="Trazado_14" data-name="Trazado 14" d="M745.387,76.33a23.39,23.39,0,0,1-1.838,10.013,16.2,16.2,0,0,1-4.73,6.063,16.794,16.794,0,0,1-6.476,3.031,30.664,30.664,0,0,1-14.147,0,16.783,16.783,0,0,1-6.475-3.031,15.8,15.8,0,0,1-4.685-6.063,23.919,23.919,0,0,1-1.792-10.013l.092-4.188q0-5.511,2.986-7.854T717,61.945q-.093.552-.184,1.654-.093,1.011-.138,2.756t-.046,4.5l.092,5.474a21.264,21.264,0,0,0,.735,6.2,9.035,9.035,0,0,0,1.975,3.629,6.376,6.376,0,0,0,2.755,1.745,10.546,10.546,0,0,0,6.155,0A6.385,6.385,0,0,0,731.1,86.16a9.06,9.06,0,0,0,1.975-3.629,21.331,21.331,0,0,0,.735-6.2l.092-11.933q0-5.511,3.031-7.854t8.727-2.342q-.095.551-.184,1.653-.094,1.012-.139,2.756t-.045,4.5Z" fill="#fff"/>
    <path id="Trazado_15" data-name="Trazado 15" d="M780.36,47.534a15.978,15.978,0,0,0-6.017-4.381,24.9,24.9,0,0,0-9.942-1.612H732.288c-1.83,0-3.317-.018-4.47-.047s-2.073-.066-2.741-.122q-1.092-.086-1.638-.17c0,3.515.769,6.2,2.326,8.075s4.147,2.934,7.8,2.934h34.61a.511.511,0,0,1,.371.9c-10.039,8.27-10.778,28.316-28.742,41.655a.83.83,0,0,0,.5,1.5l30.828-.189q5.477,0,7.8-2.8c1.557-1.875,2.326-4.561,2.326-8.075q-.546.084-1.639.169c-.667.057-1.587.1-2.74.123s-2.64.047-4.471.047l-8.3-.054a.934.934,0,0,1-.708-1.551c5.294-6.144,11.493-24,19.6-31.672A14.951,14.951,0,0,0,780.36,47.534Z" fill="#fff"/>
    <path id="Trazado_16" data-name="Trazado 16" d="M628.127,41.871q-3.96,1.154-6.135,6.691L611.966,70.573a2.028,2.028,0,0,1-3.765,0l-9.378-22.011q-2.176-5.537-6.135-6.691c-2.654-.776-5.873-.408-9.688,1.091q.309.516.835,1.584c.326.651,7.847,21.254,7.847,21.254a25.3,25.3,0,0,0,5.79,9.33,16.63,16.63,0,0,0,10.559,4.825.928.928,0,0,1,.789,1.265L598.7,107.149c-.727,1.851-1.338,3.346-1.827,4.5s-.9,2.068-1.221,2.719q-.527,1.068-.835,1.585c3.814,1.5,7.034,1.866,9.688,1.09q3.958-1.153,6.134-6.691S636.653,45.2,636.98,44.546q.525-1.068.834-1.584C634,41.463,630.78,41.1,628.127,41.871Z" fill="#fff"/>
    <path id="Trazado_17" data-name="Trazado 17" d="M688.132,96.264c-7.226,0-9.7-3.6-10.6-6.148a27.477,27.477,0,0,1-37.5-39.956c-.181-6.507,1.828-14.024,9.428-20.436a2.529,2.529,0,0,1,3.715.5,2.617,2.617,0,0,1-.53,3.429c-12.688,10.779-9.5,27.145-8.466,31.173l.257.924a16.164,16.164,0,0,0,11.853,18.61A16.152,16.152,0,0,0,676.417,69.23h.031V52.563H660.306a16.09,16.09,0,0,0-12.439,5.866c.839-4.552,3.1-11.823,9.264-17.022a25.463,25.463,0,0,1,3.175-.192,27.343,27.343,0,0,1,11.916,2.716,2.978,2.978,0,0,0,4.239-2.713,15.4,15.4,0,0,1,4.875,2.64,16.105,16.105,0,0,1,4.7,6.017,23.337,23.337,0,0,1,1.78,9.942V86c0,1.831-.031,4.665,0,5.818s.071,2.074.131,2.741C688.011,95.282,688.072,95.9,688.132,96.264ZM662.3,65.463h.008V60.576h-4.733a4.733,4.733,0,1,0,4.725,4.887Zm-16.937-2.831s.309-20.482,18.22-27.328a2.529,2.529,0,1,0-1.806-4.724C640.069,38.877,645.362,62.632,645.362,62.632Z" fill="#e8540d"/>
    <path id="Trazado_18" data-name="Trazado 18" d="M724.137,29.128a19.688,19.688,0,0,1-.566,4.946,10.267,10.267,0,0,1-1.76,3.722q-2.26,2.928-7.545,3h-9.188a2.624,2.624,0,0,0-2.624,2.625v6.4h10.528s1.274-.122,1.638-.182a19.688,19.688,0,0,1-.566,4.945,10.259,10.259,0,0,1-1.76,3.722q-2.261,2.928-7.545,3h-.5a1.8,1.8,0,0,0-1.8,1.8c0,6.415-.05,27.787-.024,28.772.031,1.153.071,2.073.132,2.741q.09,1.092.182,1.638a19.689,19.689,0,0,1-4.946-.566,10.267,10.267,0,0,1-3.722-1.76q-2.926-2.26-3-7.545V44.825c0-.162,0-.334.01-.5a11.133,11.133,0,0,1,.809-3.691,15.328,15.328,0,0,1,2.589-4.713,16.1,16.1,0,0,1,6.017-4.7,23.278,23.278,0,0,1,9.942-1.821h4.855c1.83,0,3.317.071,4.47.041s2.073-.071,2.741-.132Q723.591,29.22,724.137,29.128Z" fill="#fff"/>
  </g>
</svg>
