<svg id="Grupo_122" data-name="Grupo 122" xmlns="http://www.w3.org/2000/svg" width="76.072" height="37.337" viewBox="0 0 76.072 37.337">
  <g id="Grupo_3" data-name="Grupo 3" transform="translate(19.094 30.134)">
    <path id="Trazado_4" data-name="Trazado 4" d="M634.918,111.8a1.512,1.512,0,0,1,.737-.172,1.656,1.656,0,0,1,.9.251,1.734,1.734,0,0,1,.634.716,2.639,2.639,0,0,1,0,2.166,1.754,1.754,0,0,1-.634.723,1.637,1.637,0,0,1-.9.254,1.523,1.523,0,0,1-.734-.172,1.346,1.346,0,0,1-.5-.444v2.463H633.2v-5.9h1.224v.566A1.324,1.324,0,0,1,634.918,111.8Zm1,1.156a.84.84,0,0,0-.627-.261.826.826,0,0,0-.619.265,1.157,1.157,0,0,0,0,1.446.857.857,0,0,0,1.243,0,1.006,1.006,0,0,0,.258-.726A.989.989,0,0,0,635.917,112.957Z" transform="translate(-633.2 -110.383)" fill="#fff"/>
    <path id="Trazado_5" data-name="Trazado 5" d="M647.206,108.353v5.3h-1.224v-5.3Z" transform="translate(-641.12 -108.353)" fill="#fff"/>
    <path id="Trazado_6" data-name="Trazado 6" d="M651.128,112.6a1.734,1.734,0,0,1,.634-.716,1.655,1.655,0,0,1,.9-.251,1.533,1.533,0,0,1,.741.172,1.264,1.264,0,0,1,.491.451v-.566h1.224v4h-1.224v-.566a1.326,1.326,0,0,1-.5.451,1.54,1.54,0,0,1-.741.172,1.623,1.623,0,0,1-.888-.254,1.753,1.753,0,0,1-.634-.723,2.635,2.635,0,0,1,0-2.166Zm2.506.365a.86.86,0,0,0-1.238,0,.988.988,0,0,0-.254.72,1.012,1.012,0,0,0,.254.726.852.852,0,0,0,1.238,0,1.155,1.155,0,0,0,0-1.446Z" transform="translate(-644.165 -110.383)" fill="#fff"/>
    <path id="Trazado_7" data-name="Trazado 7" d="M667.663,111.779l-2.506,5.893H663.84l.917-2.034-1.626-3.86H664.5l.924,2.5.917-2.5Z" transform="translate(-651.746 -110.476)" fill="#fff"/>
    <path id="Trazado_8" data-name="Trazado 8" d="M681.954,113.15v1.038h-.623a1.524,1.524,0,0,1-1.038-.326,1.347,1.347,0,0,1-.372-1.063V111.21h-.487v-1.017h.487v-.974h1.224v.974h.8v1.017h-.8v1.6a.336.336,0,0,0,.086.257.421.421,0,0,0,.287.079Z" transform="translate(-661.848 -108.89)" fill="#fff"/>
    <path id="Trazado_9" data-name="Trazado 9" d="M688.214,115.488a1.834,1.834,0,0,1-.738-.716,2.319,2.319,0,0,1,0-2.173,1.844,1.844,0,0,1,.745-.719,2.365,2.365,0,0,1,2.119,0,1.845,1.845,0,0,1,.745.719,2.127,2.127,0,0,1,.272,1.085,2.1,2.1,0,0,1-.276,1.085,1.86,1.86,0,0,1-.752.72,2.243,2.243,0,0,1-1.063.251A2.2,2.2,0,0,1,688.214,115.488Zm1.654-1.067a1.025,1.025,0,0,0,.247-.738,1.045,1.045,0,0,0-.24-.738.814.814,0,0,0-1.185,0,1.051,1.051,0,0,0-.236.741,1.065,1.065,0,0,0,.233.738.753.753,0,0,0,.583.257A.8.8,0,0,0,689.868,114.422Z" transform="translate(-666.666 -110.383)" fill="#fff"/>
    <path id="Trazado_10" data-name="Trazado 10" d="M707.179,113.977h-2.771a.834.834,0,0,0,.24.569.734.734,0,0,0,.519.2.644.644,0,0,0,.638-.387h1.3a1.792,1.792,0,0,1-.362.709,1.812,1.812,0,0,1-.655.494,2.1,2.1,0,0,1-.88.179,2.14,2.14,0,0,1-1.046-.251,1.782,1.782,0,0,1-.716-.716,2.21,2.21,0,0,1-.258-1.089,2.233,2.233,0,0,1,.254-1.088,1.757,1.757,0,0,1,.712-.716,2.322,2.322,0,0,1,2.084-.008,1.752,1.752,0,0,1,.706.695,2.109,2.109,0,0,1,.254,1.052A3.106,3.106,0,0,1,707.179,113.977Zm-1.231-.68a.631.631,0,0,0-.215-.5.792.792,0,0,0-.537-.186.775.775,0,0,0-.519.179.8.8,0,0,0-.261.508Z" transform="translate(-676.569 -110.383)" fill="#fff"/>
    <path id="Trazado_11" data-name="Trazado 11" d="M715.02,112.6a1.729,1.729,0,0,1,.634-.716,1.655,1.655,0,0,1,.9-.251,1.532,1.532,0,0,1,.741.172,1.267,1.267,0,0,1,.491.451v-.566H719v4H717.78v-.566a1.324,1.324,0,0,1-.5.451,1.538,1.538,0,0,1-.741.172,1.624,1.624,0,0,1-.888-.254,1.748,1.748,0,0,1-.634-.723,2.635,2.635,0,0,1,0-2.166Zm2.506.365a.861.861,0,0,0-1.239,0,.988.988,0,0,0-.254.72,1.012,1.012,0,0,0,.254.726.853.853,0,0,0,1.239,0,1.156,1.156,0,0,0,0-1.446Z" transform="translate(-683.755 -110.383)" fill="#fff"/>
    <path id="Trazado_12" data-name="Trazado 12" d="M729.97,111.856a1.387,1.387,0,0,1,.716-.19v1.3h-.337a1.031,1.031,0,0,0-.687.2.875.875,0,0,0-.229.691V115.7h-1.224v-4h1.224v.666A1.619,1.619,0,0,1,729.97,111.856Z" transform="translate(-692.071 -110.406)" fill="#fff"/>
    <path id="Trazado_13" data-name="Trazado 13" d="M739.821,112.121a1.774,1.774,0,0,1,.419,1.249V115.7h-1.218v-2.17a.877.877,0,0,0-.207-.623.813.813,0,0,0-1.117,0,.877.877,0,0,0-.208.623v2.17h-1.224v-4h1.224v.53a1.29,1.29,0,0,1,.5-.419,1.591,1.591,0,0,1,.709-.154A1.451,1.451,0,0,1,739.821,112.121Z" transform="translate(-697.064 -110.406)" fill="#fff"/>
  </g>
  <path id="Trazado_14" data-name="Trazado 14" d="M720.513,62.618a8.9,8.9,0,0,1-.7,3.809,6.161,6.161,0,0,1-1.8,2.306,6.388,6.388,0,0,1-2.463,1.153,11.663,11.663,0,0,1-5.381,0,6.384,6.384,0,0,1-2.463-1.153,6.008,6.008,0,0,1-1.782-2.306,9.1,9.1,0,0,1-.682-3.809l.035-1.593a3.574,3.574,0,0,1,1.136-2.987,5.258,5.258,0,0,1,3.3-.891q-.035.21-.07.629-.035.385-.052,1.048t-.017,1.712l.035,2.082a8.087,8.087,0,0,0,.28,2.359,3.437,3.437,0,0,0,.751,1.38,2.425,2.425,0,0,0,1.048.664,4.011,4.011,0,0,0,2.341,0,2.428,2.428,0,0,0,1.048-.664,3.445,3.445,0,0,0,.751-1.38,8.115,8.115,0,0,0,.28-2.359l.035-4.539a3.548,3.548,0,0,1,1.153-2.987,5.34,5.34,0,0,1,3.319-.891q-.036.209-.07.629-.036.385-.053,1.048t-.017,1.712Z" transform="translate(-658.747 -44.664)" fill="#fff"/>
  <path id="Trazado_15" data-name="Trazado 15" d="M745.089,43.61a6.078,6.078,0,0,0-2.289-1.666,9.47,9.47,0,0,0-3.782-.613H726.8c-.7,0-1.262-.007-1.7-.018s-.788-.025-1.043-.046q-.415-.033-.623-.065a4.685,4.685,0,0,0,.885,3.071,3.671,3.671,0,0,0,2.966,1.116h13.164a.194.194,0,0,1,.141.342c-3.818,3.146-4.1,10.77-10.932,15.844a.316.316,0,0,0,.191.57l11.726-.072a3.658,3.658,0,0,0,2.966-1.064,4.686,4.686,0,0,0,.885-3.071q-.208.032-.623.064c-.254.022-.6.036-1.042.047s-1,.018-1.7.018l-3.157-.021a.355.355,0,0,1-.269-.59c2.014-2.337,4.371-9.13,7.456-12.047A5.688,5.688,0,0,0,745.089,43.61Z" transform="translate(-670.022 -36.61)" fill="#fff"/>
  <path id="Trazado_16" data-name="Trazado 16" d="M600.165,41.626a3.827,3.827,0,0,0-2.334,2.545l-3.813,8.372a.771.771,0,0,1-1.432,0l-3.567-8.372a3.828,3.828,0,0,0-2.333-2.545,5.745,5.745,0,0,0-3.685.415q.118.2.318.6c.124.248,2.985,8.084,2.985,8.084a9.623,9.623,0,0,0,2.2,3.549,6.325,6.325,0,0,0,4.016,1.835.353.353,0,0,1,.3.481l-3.848,9.862c-.277.7-.509,1.273-.695,1.712s-.34.787-.464,1.034q-.2.406-.318.6a5.746,5.746,0,0,0,3.685.415,3.826,3.826,0,0,0,2.333-2.545s9.894-24.782,10.018-25.03q.2-.406.317-.6A5.744,5.744,0,0,0,600.165,41.626Z" transform="translate(-583 -36.779)" fill="#fff"/>
  <path id="Trazado_17" data-name="Trazado 17" d="M653.857,54.664c-2.748,0-3.689-1.369-4.031-2.338a10.451,10.451,0,0,1-14.264-15.2,9.455,9.455,0,0,1,3.586-7.773.962.962,0,0,1,1.413.191,1,1,0,0,1-.2,1.3c-4.826,4.1-3.612,10.325-3.22,11.857l.1.351a6.148,6.148,0,0,0,4.508,7.079,6.144,6.144,0,0,0,7.655-5.755h.012V38.042h-6.14a6.12,6.12,0,0,0-4.731,2.231,11.075,11.075,0,0,1,3.524-6.474,9.685,9.685,0,0,1,1.208-.073,10.4,10.4,0,0,1,4.532,1.033,1.133,1.133,0,0,0,1.612-1.032,5.858,5.858,0,0,1,1.854,1,6.126,6.126,0,0,1,1.789,2.289,8.877,8.877,0,0,1,.677,3.782v9.957c0,.7-.012,1.774,0,2.213s.027.789.05,1.043C653.811,54.29,653.834,54.525,653.857,54.664Zm-9.826-11.715h0V41.09h-1.8a1.8,1.8,0,1,0,1.8,1.859Zm-6.442-1.077s.118-7.791,6.93-10.394a.962.962,0,1,0-.687-1.8C635.576,32.836,637.589,41.872,637.589,41.872Z" transform="translate(-613.869 -29.128)" fill="#e8540d"/>
  <path id="Trazado_18" data-name="Trazado 18" d="M703.645,29.128a7.491,7.491,0,0,1-.215,1.881,3.906,3.906,0,0,1-.669,1.416,3.473,3.473,0,0,1-2.87,1.142H696.4a1,1,0,0,0-1,1V37h4s.485-.046.623-.069a7.487,7.487,0,0,1-.215,1.881,3.9,3.9,0,0,1-.669,1.416,3.475,3.475,0,0,1-2.87,1.143h-.19a.685.685,0,0,0-.685.685c0,2.44-.019,10.569-.009,10.944.012.439.027.788.05,1.043q.034.415.069.623a7.489,7.489,0,0,1-1.881-.215,3.905,3.905,0,0,1-1.416-.669,3.475,3.475,0,0,1-1.142-2.87V35.1c0-.062,0-.127,0-.189a4.235,4.235,0,0,1,.308-1.4,5.83,5.83,0,0,1,.985-1.793,6.126,6.126,0,0,1,2.289-1.789,8.854,8.854,0,0,1,3.781-.693h1.847c.7,0,1.262.027,1.7.016s.789-.027,1.043-.05Q703.437,29.163,703.645,29.128Z" transform="translate(-649.962 -29.128)" fill="#fff"/>
</svg>
