<?xml version="1.0" encoding="utf-8"?>
<!-- Generator: Adobe Illustrator 24.1.2, SVG Export Plug-In . SVG Version: 6.00 Build 0)  -->
<svg version="1.1" id="Capa_1" xmlns="http://www.w3.org/2000/svg" xmlns:xlink="http://www.w3.org/1999/xlink" x="0px" y="0px"
	 viewBox="0 0 32 32" style="enable-background:new 0 0 32 32;" xml:space="preserve">
<style type="text/css">
	.st0{fill:#E8540D;}
</style>
<path id="Trazado_17" class="st0" d="M28.5,30.7c-3.3,0-4.4-1.6-4.8-2.8c-5.3,4.3-13.2,3.5-17.5-1.9C2.4,21.3,2.6,14.4,6.7,9.9
	C6.7,6.9,7.6,3.5,11,0.6c0.5-0.4,1.2-0.3,1.6,0.1c0,0,0,0.1,0.1,0.1C13,1.4,12.9,2,12.4,2.4C6.7,7.3,8.1,14.7,8.6,16.5l0.1,0.4
	c-0.7,3.8,1.6,7.5,5.4,8.4c3.9,1,7.9-1.4,8.9-5.3c0.1-0.5,0.2-1,0.2-1.6h0V11h-7.3c-2.2,0-4.2,1-5.6,2.7c0.4-2.1,1.4-5.3,4.2-7.7
	c0.5-0.1,1-0.1,1.4-0.1c1.9,0,3.7,0.4,5.4,1.2c0.7,0.3,1.5,0,1.8-0.7c0.1-0.2,0.1-0.4,0.1-0.6C24,6.1,24.8,6.5,25.4,7
	c0.9,0.7,1.6,1.7,2.1,2.7c0.6,1.4,0.9,3,0.8,4.5v11.8c0,0.8,0,2.1,0,2.6c0,0.5,0,0.9,0.1,1.2C28.4,30.3,28.5,30.6,28.5,30.7z
	 M16.8,16.8L16.8,16.8l0-2.2h-2.1c-1.2,0-2.1,1-2.1,2.1c0,1.2,1,2.1,2.1,2.1C15.8,18.9,16.8,18,16.8,16.8z M9.1,15.5
	c0,0,0.1-9.3,8.2-12.4c0.6-0.2,0.9-0.9,0.7-1.5c-0.2-0.6-0.9-0.9-1.5-0.7c0,0,0,0,0,0C6.7,4.8,9.1,15.5,9.1,15.5L9.1,15.5z"/>
</svg>
